HIERARCHY
ROOT Hips
{
	OFFSET 0.000000 0.000000 0.000000
	CHANNELS 6 Xposition Yposition Zposition Zrotation Yrotation Xrotation 
	JOINT LHipJoint
	{
		OFFSET 0.000000 0.000000 0.000000
		CHANNELS 3 Zrotation Yrotation Xrotation
		JOINT LeftUpLeg
		{
			OFFSET 1.363060 -1.794630 0.839290
			CHANNELS 3 Zrotation Yrotation Xrotation
			JOINT LeftLeg
			{
				OFFSET 2.448110 -6.726130 0.000000
				CHANNELS 3 Zrotation Yrotation Xrotation
				JOINT LeftFoot
				{
					OFFSET 2.562200 -7.039590 0.000000
					CHANNELS 3 Zrotation Yrotation Xrotation
					JOINT LeftToeBase
					{
						OFFSET 0.157640 -0.433110 2.322550
						CHANNELS 3 Zrotation Yrotation Xrotation
						End Site
						{
							OFFSET 0.000000 0.000000 0.000000
						}
					}
				}
			}
		}
	}
	JOINT RHipJoint
	{
		OFFSET 0.000000 0.000000 0.000000
		CHANNELS 3 Zrotation Yrotation Xrotation
		JOINT RightUpLeg
		{
			OFFSET -1.305520 -1.794630 0.839290
			CHANNELS 3 Zrotation Yrotation Xrotation
			JOINT RightLeg
			{
				OFFSET -2.542530 -6.985550 0.000000
				CHANNELS 3 Zrotation Yrotation Xrotation
				JOINT RightFoot
				{
					OFFSET -2.568260 -7.056230 0.000000
					CHANNELS 3 Zrotation Yrotation Xrotation
					JOINT RightToeBase
					{
						OFFSET -0.164730 -0.452590 2.363150
						CHANNELS 3 Zrotation Yrotation Xrotation
						End Site
						{
							OFFSET 0.000000 0.000000 0.000000
						}
					}
				}
			}
		}
	}
	JOINT LowerBack
	{
		OFFSET 0.000000 0.000000 0.000000
		CHANNELS 3 Zrotation Yrotation Xrotation
		JOINT Spine
		{
			OFFSET 0.028270 2.035590 -0.193380
			CHANNELS 3 Zrotation Yrotation Xrotation
			JOINT Spine1
			{
				OFFSET 0.056720 2.048850 -0.042750
				CHANNELS 3 Zrotation Yrotation Xrotation
				JOINT Neck
				{
					OFFSET 0.000000 0.000000 0.000000
					CHANNELS 3 Zrotation Yrotation Xrotation
					JOINT Neck1
					{
						OFFSET -0.054170 1.746240 0.172020
						CHANNELS 3 Zrotation Yrotation Xrotation
						JOINT Head
						{
							OFFSET 0.104070 1.761360 -0.123970
							CHANNELS 3 Zrotation Yrotation Xrotation
							End Site
							{
								OFFSET 0.000000 0.000000 0.000000
							}
						}
					}
				}
				JOINT LeftShoulder
				{
					OFFSET 0.000000 0.000000 0.000000
					CHANNELS 3 Zrotation Yrotation Xrotation
					JOINT LeftArm
					{
						OFFSET 3.362410 1.200890 -0.311210
						CHANNELS 3 Zrotation Yrotation Xrotation
						JOINT LeftForeArm
						{
							OFFSET 4.983000 -0.000000 -0.000000
							CHANNELS 3 Zrotation Yrotation Xrotation
							JOINT LeftHand
							{
								OFFSET 3.483560 -0.000000 -0.000000
								CHANNELS 3 Zrotation Yrotation Xrotation
								JOINT LeftFingerBase
								{
									OFFSET 0.000000 0.000000 0.000000
									CHANNELS 3 Zrotation Yrotation Xrotation
									JOINT LeftHandIndex1
									{
										OFFSET 0.715260 -0.000000 -0.000000
										CHANNELS 3 Zrotation Yrotation Xrotation
										End Site
										{
											OFFSET 0.000000 0.000000 0.000000
										}
									}
								}
								JOINT LThumb
								{
									OFFSET 0.000000 0.000000 0.000000
									CHANNELS 3 Zrotation Yrotation Xrotation
									End Site
									{
										OFFSET 0.000000 0.000000 0.000000
									}
								}
							}
						}
					}
				}
				JOINT RightShoulder
				{
					OFFSET 0.000000 0.000000 0.000000
					CHANNELS 3 Zrotation Yrotation Xrotation
					JOINT RightArm
					{
						OFFSET -3.136600 1.374050 -0.404650
						CHANNELS 3 Zrotation Yrotation Xrotation
						JOINT RightForeArm
						{
							OFFSET -5.241900 -0.000000 -0.000000
							CHANNELS 3 Zrotation Yrotation Xrotation
							JOINT RightHand
							{
								OFFSET -3.444170 -0.000000 -0.000000
								CHANNELS 3 Zrotation Yrotation Xrotation
								JOINT RightFingerBase
								{
									OFFSET 0.000000 0.000000 0.000000
									CHANNELS 3 Zrotation Yrotation Xrotation
									JOINT RightHandIndex1
									{
										OFFSET -0.622530 -0.000000 -0.000000
										CHANNELS 3 Zrotation Yrotation Xrotation
										End Site
										{
											OFFSET 0.000000 0.000000 0.000000
										}
									}
								}
								JOINT RThumb
								{
									OFFSET 0.000000 0.000000 0.000000
									CHANNELS 3 Zrotation Yrotation Xrotation
									End Site
									{
										OFFSET 0.000000 0.000000 0.000000
									}
								}
							}
						}
					}
				}
			}
		}
	}
}
MOTION
Frames: 6
Frame Time: 0.008333
15.892428 16.561646 1.789467 83.197173 -87.566336 -34.175312 -8.608780 -0.098025 4.197429 -10.167748 -9.746717 -62.805784 -2.584578 -0.386709 24.706737 3.946838 13.530528 -14.907490 -0.761900 0.000000 -42.991201 8.563548 0.271865 5.211259 2.172130 6.460716 -63.976773 2.201533 -0.565984 26.411574 -3.529495 -9.135598 -15.542817 0.229500 -0.000000 -58.194300 2.003691 -1.564368 -6.542230 -0.390412 -1.979448 -4.461183 -5.965922 -2.199025 0.919976 9.463094 -4.387861 -9.167277 -3.427914 -0.234291 -0.749969 0.000000 0.000000 0.000000 -0.683145 3.478852 3.464279 -70.273101 3.005201 10.273477 -3.031809 -18.628005 0.009364 0.234123 -6.062656 -0.016527 -0.082893 0.081270 -0.000000 0.000000 0.000000 0.000000 0.000000 0.000000 0.000000 16.324052 -2.934625 3.402395 72.828180 3.353012 -16.161583 2.312339 6.934248 0.003063 -5.238591 9.930139 -0.471805 0.102082 -0.168208 0.000000 0.000000 0.000000 0.000000 0.000000 0.000000 0.000000 
15.873844 16.451867 1.788105 84.131577 -87.391013 -34.304489 -8.540937 -0.112899 4.291637 -10.086723 -10.401128 -65.132012 -2.496740 -0.059930 27.722222 4.138387 13.686269 -16.362780 -1.154800 0.000000 -42.931100 8.555312 0.387288 5.311503 1.630653 6.716765 -66.541608 2.041788 -0.989560 29.925010 -3.703728 -9.224556 -17.213817 0.576600 -0.000000 -57.436500 1.887755 -1.604327 -6.688699 -0.426854 -2.018656 -4.501483 -5.992354 -2.241691 0.923047 9.604712 -4.531956 -9.360618 -3.464028 -0.234576 -0.818814 0.000000 0.000000 0.000000 -0.962252 3.604414 3.507786 -70.090853 3.079972 9.851397 -2.994345 -18.629316 0.008922 0.341188 -6.010682 -0.021938 -0.081100 0.082651 -0.000000 0.000000 0.000000 0.000000 0.000000 0.000000 0.000000 16.719161 -3.075401 3.447752 72.610675 3.188855 -15.934763 2.279545 7.181951 0.002829 -5.167890 9.902663 -0.464204 0.100461 -0.169456 0.000000 0.000000 0.000000 0.000000 0.000000 0.000000 0.000000 
15.855353 16.328964 1.786656 84.366340 -87.201146 -33.743077 -8.472563 -0.128149 4.395148 -9.992680 -11.077778 -67.530347 -2.391718 0.285435 30.882907 4.335089 13.850019 -17.901268 -1.584300 0.000001 -42.593600 8.557495 0.520416 5.414708 1.071574 6.929707 -69.133621 1.866554 -1.418178 33.534117 -3.883951 -9.342790 -18.972751 0.954900 0.000000 -56.405000 1.782355 -1.651716 -6.858790 -0.459223 -2.067076 -4.545312 -6.015117 -2.293607 0.928263 9.739093 -4.683310 -9.554371 -3.495823 -0.234539 -0.887284 0.000000 0.000000 0.000000 -1.232676 3.731747 3.549427 -69.911934 3.110129 9.455712 -2.957275 -18.652948 0.008501 0.466118 -5.974863 -0.028445 -0.079545 0.084377 -0.000000 0.000000 0.000000 0.000000 0.000000 0.000000 0.000000 17.083834 -3.226170 3.489301 72.401483 3.074178 -15.720877 2.247287 7.436911 0.002598 -5.114793 9.896348 -0.459203 0.099038 -0.170952 0.000000 0.000000 0.000000 0.000000 0.000000 0.000000 0.000000 
15.836974 16.192889 1.785162 83.983067 -86.996284 -32.577094 -8.405874 -0.146491 4.506315 -9.884397 -11.772683 -69.989138 -2.267336 0.647045 34.180182 4.534002 14.022851 -19.505270 -2.046800 0.000000 -41.980900 8.569398 0.670173 5.522046 0.497692 7.100696 -71.736796 1.674978 -1.847797 37.222701 -4.071200 -9.502997 -20.806635 1.365200 -0.000000 -55.094600 1.688779 -1.706716 -7.052883 -0.486795 -2.124958 -4.592779 -6.033368 -2.355044 0.935533 9.863271 -4.835106 -9.746143 -3.522846 -0.234172 -0.954536 0.000000 0.000000 0.000000 -1.492931 3.860579 3.589668 -69.740557 3.095605 9.085998 -2.921480 -18.681892 0.008104 0.605498 -5.956431 -0.035651 -0.078243 0.086419 -0.000000 0.000000 0.000000 0.000000 0.000000 0.000000 0.000000 17.411309 -3.380742 3.527080 72.204718 3.000635 -15.526288 2.215767 7.687783 0.002362 -5.083053 9.905483 -0.456804 0.097857 -0.172603 0.000000 0.000000 0.000000 0.000000 0.000000 0.000000 0.000000 
15.818713 16.044079 1.783699 83.084032 -86.774941 -30.916972 -8.342615 -0.171010 4.622501 -9.760055 -12.481753 -72.490688 -2.121444 1.021221 37.596546 4.731452 14.207128 -21.147488 -2.535500 -0.000001 -41.133700 8.590359 0.835697 5.632917 -0.086695 7.230092 -74.332503 1.466380 -2.274664 40.971242 -4.265246 -9.716269 -22.692924 1.806900 0.000000 -53.525800 1.607501 -1.768929 -7.267818 -0.509217 -2.191806 -4.642972 -6.046648 -2.425479 0.945621 9.975852 -4.986476 -9.935535 -3.545040 -0.233468 -1.020379 0.000000 0.000000 0.000000 -1.741007 3.992436 3.628632 -69.579640 3.027629 8.742828 -2.888145 -18.694509 0.007741 0.752231 -5.960000 -0.043354 -0.077190 0.088760 -0.000000 0.000000 0.000000 0.000000 0.000000 0.000000 0.000000 17.699729 -3.538783 3.561205 72.021613 2.970544 -15.353666 2.185394 7.918526 0.002122 -5.070874 9.926647 -0.456702 0.096916 -0.174332 0.000000 0.000000 0.000000 0.000000 0.000000 0.000000 0.000000 
15.800339 15.883294 1.782303 81.783987 -86.541481 -28.883182 -8.285196 -0.204396 4.742038 -9.615956 -13.192597 -75.016785 -1.953098 1.403938 41.111025 4.922371 14.399366 -22.798922 -3.041700 -0.000000 -40.096300 8.619154 1.013692 5.750380 -0.676833 7.329625 -76.899532 1.238968 -2.693262 44.752859 -4.466615 -9.998415 -24.600279 2.279001 0.000000 -51.744999 1.541868 -1.836421 -7.505901 -0.526615 -2.266167 -4.700859 -6.058750 -2.503843 0.942739 10.073249 -5.089557 -10.099084 -3.566917 -0.233110 -1.077773 0.000000 0.000000 0.000000 -1.983034 4.054525 3.669752 -69.427093 2.999021 8.361111 -2.855314 -18.733679 0.007357 0.900972 -5.959639 -0.051158 -0.076129 0.091131 -0.000000 0.000000 0.000000 0.000000 0.000000 0.000000 0.000000 17.953480 -3.651771 3.596361 71.855275 2.925143 -15.243131 2.156021 8.144663 0.001867 -5.065358 9.950359 -0.457302 0.096009 -0.176114 0.000000 0.000000 0.000000 0.000000 0.000000 0.000000 0.000000 
